# xmcd
# 
# Track frame offsets:
#	150
#	17656
#	31378
#	51940
#	72969
#	83771
#	97967
#	123079
#	131663
#	153716
#	165754
#	182495
#	198125
#	217362
#	235850
#	252326
#
# Disc length: 3450 seconds
#
# Revision: 1
# Processed by: cddbd v1.5.1PL0 Copyright (c) Steve Scherf et al.
# Submitted via: Audio-CD-Archiv 3.00.487
#
DISCID=d10d7810
DTITLE=Kerstin Siewek - From heat to heart
DYEAR=1900
DGENRE=country
TTITLE0=From heart to heart
TTITLE1=Aniies song
TTITLE2=Eagles and horses
TTITLE3=Today
TTITLE4=Around and around
TTITLE5=The ballad of St. Annes Reel
TTITLE6=Rocky Mountains flower
TTITLE7=It's a sin to tell a lie
TTITLE8=Flying for me
TTITLE9=Johnny B. Goode
TTITLE10=For you
TTITLE11=Posteard from Paris
TTITLE12=Rocky Mountain high
TTITLE13=A different dream
TTITLE14=Thanks god I'm a countryboy
TTITLE15=No one like you
EXTD=
EXTT0=
EXTT1=
EXTT2=
EXTT3=
EXTT4=
EXTT5=
EXTT6=
EXTT7=
EXTT8=
EXTT9=
EXTT10=
EXTT11=
EXTT12=
EXTT13=
EXTT14=
EXTT15=
PLAYORDER=
